PathFileType	4	(X/Y/Z)
DataRate	CameraRate	NumFrames	NumMarkers	Units	OrigDataRate	OrigDataStartFrame	OrigNumFrames
120	120	4	142	mm	120	70	553	
Frame#	Time	 STRN			 T1			 T8			 T10			 T12			 C7			 CLAV			 LANK			 RANK			 LANI			 RANI			 LASI			 RASI			 LPSI			 RPSI			 LSHO			 RSHO			 LTOE			 RTOE			 RHEE			 LHEE			 LKNE			 RKNE			 LKNI			 RKNI			 RIWR			 LIWR			 RELB			 LELB			 RELBIN			 LELBIN			 LOWR			 ROWR			 RCLAV			 LCLAV			 RFHD			 LBHD			 LFHD			 RBHD			 LMT1			 LMT5			 RMT1			 RMT5			 Tracking_L5			 Tracking_L4			 Tracking_L3			 Tracking_L2			 Tracking_L1			 Tracking_T11			 Tracking_T9			 Tracking_T7			 Tracking_T6			 Tracking_T5			 Tracking_T4			 Tracking_T3			 Tracking_T2			 rthumb			 rindex			 rmiddle			 rring			 rpinky			 lthumb			 lindex			 lmiddle			 lring			 lpinky			 ROOT			 Spine1			 Spine2			 Spine3			 LHIPJ			 RHIPJ			 LKJC			 RKJC			 LAJC			 RAJC			 LFOOT			 RFOOT			 NECK			 LCOL			 RCOL			 HEAD			 LSHOULDER			 RSHOULDER			 LELC			 RELC			 LWRIST			 RWRIST			 left_index1			 left_index2			 left_index3			 left_middle1			 left_middle2			 left_middle3			 left_pinky1			 left_pinky2			 left_pinky3			 left_ring1			 left_ring2			 left_ring3			 left_thumb1			 left_thumb2			 left_thumb3			 right_index1			 right_index2			 right_index3			 right_middle1			 right_middle2			 right_middle3			 right_pinky1			 right_pinky2			 right_pinky3			 right_ring1			 right_ring2			 right_ring3			 right_thumb1			 right_thumb2			 right_thumb3			 MASI			 MPSI			 MHIPJ			 CENTER			 Virtual_LWRIST			 Virtual_RWRIST			 Virtual_LAJC			 Virtual_RAJC			 Virtual_LKJC			 Virtual_RKJC			 Virtual_LELC			 Virtual_RELC			 Virtual_Ground_RAJC			 Virtual_Ground_LAJC			 Virtual_Ground_RFOOT			 Virtual_Ground_LFOOT			 Virtual_Ground_RTOE			 Virtual_Ground_LTOE			 Virtual_Ground_RMT1			 Virtual_Ground_LMT1			 Virtual_Ground_RMT5			 Virtual_Ground_LMT5			 Virtual_Ground_RHEE			 Virtual_Ground_LHEE		
		X1	Y1	Z1	X2	Y2	Z2	X3	Y3	Z3	X4	Y4	Z4	X5	Y5	Z5	X6	Y6	Z6	X7	Y7	Z7	X8	Y8	Z8	X9	Y9	Z9	X10	Y10	Z10	X11	Y11	Z11	X12	Y12	Z12	X13	Y13	Z13	X14	Y14	Z14	X15	Y15	Z15	X16	Y16	Z16	X17	Y17	Z17	X18	Y18	Z18	X19	Y19	Z19	X20	Y20	Z20	X21	Y21	Z21	X22	Y22	Z22	X23	Y23	Z23	X24	Y24	Z24	X25	Y25	Z25	X26	Y26	Z26	X27	Y27	Z27	X28	Y28	Z28	X29	Y29	Z29	X30	Y30	Z30	X31	Y31	Z31	X32	Y32	Z32	X33	Y33	Z33	X34	Y34	Z34	X35	Y35	Z35	X36	Y36	Z36	X37	Y37	Z37	X38	Y38	Z38	X39	Y39	Z39	X40	Y40	Z40	X41	Y41	Z41	X42	Y42	Z42	X43	Y43	Z43	X44	Y44	Z44	X45	Y45	Z45	X46	Y46	Z46	X47	Y47	Z47	X48	Y48	Z48	X49	Y49	Z49	X50	Y50	Z50	X51	Y51	Z51	X52	Y52	Z52	X53	Y53	Z53	X54	Y54	Z54	X55	Y55	Z55	X56	Y56	Z56	X57	Y57	Z57	X58	Y58	Z58	X59	Y59	Z59	X60	Y60	Z60	X61	Y61	Z61	X62	Y62	Z62	X63	Y63	Z63	X64	Y64	Z64	X65	Y65	Z65	X66	Y66	Z66	X67	Y67	Z67	X68	Y68	Z68	X69	Y69	Z69	X70	Y70	Z70	X71	Y71	Z71	X72	Y72	Z72	X73	Y73	Z73	X74	Y74	Z74	X75	Y75	Z75	X76	Y76	Z76	X77	Y77	Z77	X78	Y78	Z78	X79	Y79	Z79	X80	Y80	Z80	X81	Y81	Z81	X82	Y82	Z82	X83	Y83	Z83	X84	Y84	Z84	X85	Y85	Z85	X86	Y86	Z86	X87	Y87	Z87	X88	Y88	Z88	X89	Y89	Z89	X90	Y90	Z90	X91	Y91	Z91	X92	Y92	Z92	X93	Y93	Z93	X94	Y94	Z94	X95	Y95	Z95	X96	Y96	Z96	X97	Y97	Z97	X98	Y98	Z98	X99	Y99	Z99	X100	Y100	Z100	X101	Y101	Z101	X102	Y102	Z102	X103	Y103	Z103	X104	Y104	Z104	X105	Y105	Z105	X106	Y106	Z106	X107	Y107	Z107	X108	Y108	Z108	X109	Y109	Z109	X110	Y110	Z110	X111	Y111	Z111	X112	Y112	Z112	X113	Y113	Z113	X114	Y114	Z114	X115	Y115	Z115	X116	Y116	Z116	X117	Y117	Z117	X118	Y118	Z118	X119	Y119	Z119	X120	Y120	Z120	X121	Y121	Z121	X122	Y122	Z122	X123	Y123	Z123	X124	Y124	Z124	X125	Y125	Z125	X126	Y126	Z126	X127	Y127	Z127	X128	Y128	Z128	X129	Y129	Z129	X130	Y130	Z130	X131	Y131	Z131	X132	Y132	Z132	X133	Y133	Z133	X134	Y134	Z134	X135	Y135	Z135	X136	Y136	Z136	X137	Y137	Z137	X138	Y138	Z138	X139	Y139	Z139	X140	Y140	Z140	X141	Y141	Z141	X142	Y142	Z142

70	0.5750	276.239902	-341.327369	1154.153109	278.931201	-160.917163	1445.919275	311.350465	-71.999043	1254.045963	311.816096	-73.181883	1200.613499	309.889197	-81.228882	1146.126628	276.427299	-176.658556	1459.465861	259.962976	-297.321439	1359.588981	384.924084	-79.916820	60.643751	148.978993	-156.943679	90.476952	323.344350	-81.265152	83.858095	205.114156	-176.377892	120.508634	416.939706	-283.288717	894.084454	149.957389	-249.744862	899.981380	371.253341	-58.455389	976.326644	251.052797	-45.925107	976.507664	403.423339	-262.816101	1420.224309	131.163746	-213.577777	1391.352415	358.324021	-258.599937	2.800185	157.975480	-323.799849	-0.889342	219.193771	-102.621198	56.507070	341.562390	-15.585107	4.515607	446.327239	-236.400753	445.001483	55.012353	-296.301961	484.273434	338.104546	-239.645600	443.900019	163.848147	-327.579379	472.115248	126.290411	-365.020692	863.384604	390.643358	-421.566308	903.268218	8.130796	-189.098060	1027.912617	559.685588	-299.115121	1074.787498	87.772645	-151.830584	1009.462595	507.891357	-231.605917	1047.487259	432.510197	-403.644562	864.058316	103.592105	-326.976538	819.466352	188.826233	-268.726945	1366.496801	333.900183	-296.739966	1381.618500	160.301700	-325.777560	1619.166970	293.978602	-243.245691	1677.274585	254.204482	-363.261759	1634.280920	201.880351	-204.531103	1660.399795	357.787549	-203.903988	23.765583	424.743176	-176.416412	4.634519	158.658162	-277.752727	28.195877	100.416042	-232.538670	-0.633459	308.830440	-69.328576	1013.539910	308.132470	-78.450747	1038.464546	308.042705	-85.770041	1067.277670	307.634145	-87.453663	1093.618870	308.588207	-84.999084	1119.203091	311.100990	-77.040732	1172.851682	311.931252	-71.587846	1228.198767	309.585065	-74.419186	1277.368188	305.258572	-84.173843	1318.318725	300.325423	-96.730262	1350.533366	291.922390	-118.238226	1391.425252	286.978275	-132.582456	1413.165927	282.830030	-146.195292	1430.298090	238.545939	-419.724971	788.741112	231.228188	-430.717260	740.444541	222.192720	-414.441884	720.296800	211.725548	-393.756419	721.152544	192.811623	-371.184379	718.440175	282.281011	-437.533051	808.381021	287.185729	-446.473092	771.457195	302.472830	-439.876914	752.487838	321.822762	-426.864326	755.689204	349.956512	-419.096828	754.663885	292.821169	-189.354569	905.729234	301.678330	-148.448929	1031.437755	300.985932	-200.163305	1155.374765	293.115407	-216.432542	1205.483556	354.710370	-177.859068	823.379040	230.092853	-173.011020	815.448582	405.015826	-233.589798	448.340684	99.842794	-303.480208	481.365472	339.997947	-84.084496	55.229563	189.328492	-172.589153	94.608210	396.436393	-196.684003	-7.440310	129.702017	-261.474103	-6.276231	260.819376	-228.433460	1414.071441	352.761388	-237.114489	1327.501655	202.145115	-202.792853	1313.983083	246.378884	-284.711272	1488.822341	483.278960	-268.419147	1312.920928	82.079269	-200.171962	1279.698253	535.249949	-263.552964	1060.592771	48.033871	-166.680500	1019.549847	408.524960	-410.616130	876.339078	121.125139	-346.062243	831.498921	335.644096	-468.282044	820.713103	313.439637	-477.659583	797.950327	300.881892	-463.613808	784.233749	350.788653	-472.747982	800.664783	332.758367	-476.081073	774.447262	319.277436	-460.089803	761.324465	390.759021	-446.686327	785.732329	380.193830	-443.428993	768.565178	367.391586	-431.356311	759.522080	373.530209	-460.846722	790.994346	353.528440	-462.179959	769.181728	338.213861	-445.960790	758.864462	355.840594	-421.188861	860.405445	326.474577	-423.821092	848.341167	305.864066	-435.579240	834.849238	169.651628	-429.201663	782.305002	188.513339	-446.671635	760.115087	208.006248	-439.105272	749.409378	157.370299	-424.541414	758.409917	176.058441	-434.560955	734.216034	197.229207	-425.891519	725.284696	138.370425	-380.894244	740.565658	152.465031	-381.067365	725.829720	170.662180	-375.522047	720.687747	144.902632	-402.174354	746.327221	165.066451	-411.252528	726.591110	187.487006	-402.817965	720.464528	165.716067	-379.135847	826.230586	194.050983	-392.458618	817.871511	211.339653	-410.223901	805.184066	283.448547	-266.516790	897.032917	311.153069	-52.190248	976.417154	292.401612	-175.435044	819.413811	297.300808	-159.353519	936.725035	411.576778	-412.605435	883.663267	114.941258	-345.998615	841.425478	354.134217	-80.590986	72.250923	177.046575	-166.660786	105.492793	392.215893	-238.023177	444.450751	109.430250	-311.940670	478.194341	533.788472	-265.360519	1061.137378	47.951721	-170.464322	1018.687606	177.046575	-739.163160	105.492793	354.134217	-739.163160	72.250923	129.702017	-739.163160	-6.276231	396.436393	-739.163160	-7.440310	157.975480	-739.163160	-0.889342	358.324021	-739.163160	2.800185	158.658162	-739.163160	28.195877	357.787549	-739.163160	23.765583	100.416042	-739.163160	-0.633459	424.743176	-739.163160	4.634519	219.193771	-739.163160	56.507070	341.562390	-739.163160	4.515607
71	0.5833	277.644038	-340.584457	1150.563478	281.877220	-161.103562	1442.773938	314.219624	-71.634687	1251.237035	314.526618	-72.583094	1197.712183	312.433034	-80.440387	1143.102288	279.344797	-176.870108	1456.244946	262.145549	-297.238261	1356.089592	384.955406	-79.243824	58.367640	144.520327	-160.724819	96.875399	323.379844	-80.181122	81.424326	199.822128	-181.076169	127.631932	418.677449	-282.953233	891.493440	151.768655	-248.091519	898.051500	373.664558	-57.566844	973.104179	253.447622	-44.555843	973.047018	405.775070	-263.686180	1416.550756	133.758754	-212.953657	1388.356805	357.755125	-258.725315	2.940028	157.298818	-324.302107	0.110178	215.503871	-105.484337	66.876858	342.116535	-15.365706	1.259653	447.971046	-236.203104	441.898525	47.693897	-305.679530	489.374518	339.706182	-238.832086	441.351444	156.274870	-337.879956	475.762010	127.483055	-364.323109	863.703668	392.042130	-421.332210	899.140358	8.933337	-186.402500	1025.475740	562.330782	-300.641000	1070.796967	88.636085	-149.436533	1006.958723	511.045575	-232.723415	1043.836951	433.844388	-403.494269	859.858334	105.307132	-326.779157	819.100857	191.105291	-268.301278	1363.250017	336.099565	-297.079831	1377.990603	163.385987	-326.028913	1616.076350	297.282338	-243.643433	1673.833370	257.286936	-363.599777	1630.826831	205.190703	-204.844624	1657.240272	357.332826	-203.642339	23.279397	424.675852	-176.735461	4.311292	156.658053	-279.276699	30.496566	99.631995	-233.256429	1.051037	311.209917	-68.275020	1010.344505	310.522079	-77.427693	1035.303712	310.450107	-84.757686	1064.144969	310.075969	-86.474881	1090.477228	311.091602	-84.098905	1116.080999	313.722789	-76.337911	1169.885516	314.725399	-71.111508	1225.347638	312.510669	-74.154355	1274.582386	308.271468	-84.059417	1315.527678	303.383619	-96.742034	1347.682357	294.983029	-118.347436	1388.465047	290.004522	-132.733375	1410.151601	285.821289	-146.369427	1427.217603	240.525305	-420.170516	791.088760	233.677417	-431.869388	742.901087	224.914461	-415.877849	722.381294	214.430839	-395.052224	722.767711	195.593745	-372.431636	719.578207	283.285648	-436.392844	804.463327	287.928313	-445.117295	767.620444	303.237468	-438.554794	748.582661	322.727293	-425.660700	751.843929	350.926489	-418.043971	750.693977	294.604629	-188.660622	902.811646	303.494453	-147.436589	1028.413773	303.097099	-199.587330	1152.169108	295.215994	-216.031849	1202.219129	356.552362	-177.515462	820.457280	231.948629	-172.428146	812.460721	406.724215	-233.017266	445.367128	92.814535	-313.067585	486.177027	339.846581	-83.214462	52.681416	184.150502	-176.717430	101.745337	396.253556	-197.072491	-7.701190	129.121676	-261.976451	-4.726501	263.404518	-228.504807	1410.853744	355.080009	-237.358749	1324.019194	204.592362	-202.289522	1310.995340	249.001071	-284.962863	1485.475898	485.306203	-269.669533	1309.033155	84.505305	-198.935956	1276.848912	538.049102	-264.982790	1056.861758	48.896778	-164.142892	1017.080784	409.924001	-410.333425	872.217774	122.647315	-345.770329	831.458509	336.535990	-467.416614	816.657484	314.206332	-476.600140	793.938100	301.687360	-462.442607	780.301213	351.591557	-471.912712	796.548963	333.460182	-475.066155	770.378888	320.031196	-458.959550	757.344246	391.665459	-446.040243	781.565011	381.065607	-442.672580	764.440536	368.305355	-430.500060	755.472243	374.371350	-460.115641	786.840916	354.293942	-461.270481	765.087605	339.041471	-444.933385	754.864872	357.129544	-420.555145	856.420040	327.711105	-422.982663	844.440818	306.990564	-434.582531	830.980480	171.591923	-429.656416	783.976138	190.677941	-447.460234	762.248158	210.306689	-440.073222	751.666069	159.595922	-425.305337	759.878695	178.544730	-435.686707	736.042678	199.832663	-427.175015	727.239013	140.880942	-381.877065	741.217911	155.144632	-382.275522	726.650000	173.409820	-376.830786	721.643507	147.308409	-403.086454	747.346342	167.682931	-412.467629	727.971673	190.187737	-404.154241	721.989989	167.237505	-378.985107	827.161670	195.643529	-392.467231	819.315076	213.046223	-410.433143	807.073891	285.223052	-265.522376	894.772470	313.556090	-51.061343	973.075598	294.250496	-174.971804	816.459000	299.389571	-158.291860	933.924034	412.943259	-412.413239	879.499346	116.395094	-345.551133	841.402262	354.167625	-79.712473	69.895983	172.171228	-170.900494	112.253666	393.838614	-237.517595	441.624984	101.984384	-321.779743	482.568264	536.688179	-266.682208	1057.316959	48.784711	-167.919517	1016.217232	172.171228	-739.163160	112.253666	354.167625	-739.163160	69.895983	129.121676	-739.163160	-4.726501	396.253556	-739.163160	-7.701190	157.298818	-739.163160	0.110178	357.755125	-739.163160	2.940028	156.658053	-739.163160	30.496566	357.332826	-739.163160	23.279397	99.631995	-739.163160	1.051037	424.675852	-739.163160	4.311292	215.503871	-739.163160	66.876858	342.116535	-739.163160	1.259653
72	0.5917	278.881609	-339.857459	1146.733642	284.802228	-161.375627	1439.401865	316.834092	-71.254946	1248.219371	316.984147	-71.956679	1194.632053	314.741313	-79.596728	1139.917970	282.279074	-177.198574	1452.805638	264.328837	-297.237575	1352.372527	384.184420	-79.153091	56.274660	139.583960	-164.694726	103.181608	322.619766	-80.135703	79.161055	194.108546	-185.866505	134.525597	420.198649	-282.801777	888.984084	153.293818	-246.556312	896.026492	375.843614	-56.698527	969.616592	255.602241	-43.234173	969.328284	408.122808	-264.544129	1412.529349	136.295110	-212.549090	1385.186195	357.643157	-259.352148	2.508945	156.092629	-325.167984	1.836247	211.087465	-108.686894	76.820023	341.454059	-15.794870	-1.543277	449.551255	-236.648798	438.844442	40.819224	-314.583123	494.605929	341.276854	-239.110321	438.795179	149.131238	-347.755641	479.580581	128.685728	-363.843381	864.407837	393.472433	-421.576202	894.500375	9.576795	-183.713406	1022.935033	564.881682	-302.617013	1066.457152	89.283019	-146.969169	1004.366994	514.094830	-234.372735	1039.791465	435.236424	-403.775096	855.195582	107.232153	-326.794058	819.063246	193.373293	-268.000752	1359.825373	338.308573	-297.454000	1374.084592	166.681468	-326.363325	1612.862706	300.837010	-244.091213	1670.137644	260.603517	-364.014238	1627.183080	208.728880	-205.222905	1653.890610	356.929123	-203.986853	22.444077	424.474865	-177.104309	3.777153	154.197067	-281.075120	33.265837	98.288834	-234.333247	3.271586	313.355207	-67.194134	1006.936431	312.678576	-76.337256	1031.950712	312.628865	-83.656877	1060.831070	312.296569	-85.412562	1087.170362	313.374043	-83.132476	1112.799883	316.099614	-75.592481	1166.751742	317.262292	-70.614740	1222.301006	315.193594	-73.880509	1271.577358	311.081231	-83.948001	1312.502861	306.276888	-96.775383	1344.595194	297.923416	-118.506551	1385.256529	292.941898	-132.946804	1406.887650	288.753539	-146.612078	1423.894644	242.810398	-420.766711	794.373035	236.667752	-433.120281	746.230781	228.291154	-417.359620	725.324273	217.794299	-396.369010	725.207746	199.065268	-373.689592	721.490622	284.275264	-435.297102	800.048292	288.649619	-443.710923	763.248503	303.986251	-437.148869	744.127929	323.653579	-424.394011	747.485995	351.946175	-416.936517	746.242225	296.147346	-188.105613	899.808109	305.080563	-146.371245	1025.238514	305.002034	-199.028015	1148.779988	297.134727	-215.689957	1198.760152	358.155996	-177.454442	817.434192	233.567953	-172.108859	809.362113	408.380538	-233.251572	442.394882	86.170390	-322.238445	491.032302	338.887185	-83.208337	50.255604	178.596258	-180.993706	108.633645	396.095812	-197.643071	-8.253568	128.008336	-262.879312	-2.582961	265.963793	-228.628427	1407.463074	357.313842	-237.610161	1320.299387	206.929341	-201.886892	1307.875872	251.731873	-285.329103	1481.933951	487.219363	-270.939171	1304.770350	86.835295	-197.961092	1273.815155	540.757835	-266.898096	1052.755475	49.564790	-161.553308	1014.501929	411.386013	-410.501480	867.614388	124.298632	-345.721722	831.799507	337.407291	-466.725409	811.961472	314.936608	-475.612700	789.263308	302.472949	-461.284518	775.754631	352.362782	-471.206605	791.775048	334.121585	-474.072993	765.648365	320.763856	-457.792997	752.756774	392.569214	-445.529073	776.810884	381.936133	-441.982806	759.743154	369.232744	-429.666042	750.891805	375.193208	-459.513009	782.060742	355.035126	-460.393786	760.369420	339.865029	-443.887353	750.297189	358.467370	-420.252562	851.935148	328.992307	-422.398746	840.041697	308.144629	-433.769673	826.582372	173.870608	-430.259138	786.158860	193.286076	-448.356450	764.971972	213.106453	-441.132486	754.637420	162.293881	-426.174551	761.811018	181.623027	-436.874896	738.425732	203.074470	-428.508103	729.883969	143.986464	-382.938296	742.318630	158.494323	-383.537054	728.000820	176.852807	-378.186047	723.240614	150.265902	-404.084623	748.807788	170.946926	-413.734108	729.895115	193.566799	-405.534089	724.197745	168.887585	-379.067153	828.656912	197.395086	-392.694175	821.455121	214.966267	-410.837024	809.726357	286.746234	-264.679044	892.505288	315.722927	-49.966350	969.472438	295.861974	-174.781650	813.398153	301.234581	-157.322697	930.988863	414.354429	-412.675649	874.847978	117.958941	-345.318720	841.735542	353.402093	-79.644397	67.717858	166.846253	-175.280616	118.853603	395.414054	-237.879559	438.819811	94.975231	-331.169382	487.093255	539.488256	-268.494874	1053.124309	49.429907	-165.341288	1013.651013	166.846253	-739.163160	118.853603	353.402093	-739.163160	67.717858	128.008336	-739.163160	-2.582961	396.095812	-739.163160	-8.253568	156.092629	-739.163160	1.836247	357.643157	-739.163160	2.508945	154.197067	-739.163160	33.265837	356.929123	-739.163160	22.444077	98.288834	-739.163160	3.271586	424.474865	-739.163160	3.777153	211.087465	-739.163160	76.820023	341.454059	-739.163160	-1.543277
73	0.6000	280.109912	-339.193970	1142.605662	287.615865	-161.719948	1435.749769	319.176853	-70.907600	1244.952321	319.174141	-71.361728	1191.358328	316.789865	-78.744270	1136.590362	285.111547	-177.617863	1449.097753	266.491652	-297.311217	1348.388672	383.391201	-79.688005	54.529823	134.625047	-168.447807	109.117903	321.863383	-80.915742	77.284314	188.545495	-190.257922	140.846536	421.519101	-282.587498	886.525095	154.575065	-245.106027	893.895447	377.737463	-55.702761	965.942502	257.446975	-41.871265	965.477049	410.472900	-265.398473	1408.073664	138.727710	-212.314859	1381.713629	357.848078	-260.387331	1.690187	154.294521	-326.188713	4.122533	206.390083	-111.796953	85.729994	340.596467	-16.711064	-3.687344	451.217145	-238.309368	435.959995	34.841888	-322.813839	499.559045	342.942119	-240.848228	436.260939	142.945901	-356.729180	483.262926	129.998595	-363.528281	865.432739	394.786924	-421.880126	889.278293	10.038311	-181.046784	1020.196676	567.381561	-304.791003	1061.597705	89.675091	-144.425854	1001.526356	517.158389	-236.225531	1035.140038	436.679214	-404.325455	850.027621	109.319113	-327.072889	819.279253	195.589215	-267.818689	1356.131911	340.512961	-297.836035	1369.863749	170.099363	-326.807588	1609.500170	304.535478	-244.602606	1666.179299	264.065266	-364.508182	1623.329520	212.382421	-205.694661	1650.353551	356.744319	-204.847500	21.406688	424.369723	-177.757576	3.035702	151.380852	-282.889634	36.350526	96.339695	-235.548660	6.022133	315.207303	-65.997146	1003.406525	314.546227	-75.123593	1028.487563	314.530373	-82.448699	1057.409286	314.251959	-84.277771	1083.755136	315.395713	-82.130499	1109.402895	318.214059	-74.861914	1163.451910	319.526494	-70.153721	1219.029546	317.612976	-73.635943	1268.305063	313.656747	-83.863460	1309.190512	308.961570	-96.844397	1341.216922	300.697446	-118.720122	1381.750703	295.737982	-133.222416	1403.326273	291.561037	-146.920532	1420.279264	245.241195	-421.595424	798.255861	239.878178	-434.674501	750.167429	231.923640	-419.138640	728.858709	221.430659	-397.986650	728.199482	202.824593	-375.250459	723.909259	285.404444	-434.053838	794.708550	289.609134	-442.246348	757.988214	305.044234	-435.793728	738.812864	324.932039	-423.239797	742.306352	353.355885	-416.041136	741.059422	297.454417	-187.538460	896.701932	306.456476	-145.185053	1021.919727	306.756973	-198.508993	1145.174384	298.928171	-215.423122	1195.075750	359.501243	-177.443355	814.286768	234.926715	-171.865597	806.163490	410.109222	-234.776899	439.530760	80.343820	-330.671400	495.545298	337.927401	-83.909415	48.194207	173.214138	-184.964448	114.932694	396.079093	-198.512316	-9.042285	126.247019	-263.952136	0.091232	268.444747	-228.838518	1403.850198	359.458268	-237.884119	1316.341639	209.152415	-201.621249	1304.545403	254.473418	-285.783559	1478.183866	488.989472	-272.230446	1299.927831	89.081399	-197.195992	1270.464778	543.464482	-269.007832	1048.101902	50.003357	-158.921137	1011.686921	412.840456	-410.815805	862.456918	126.098990	-345.906556	832.440734	338.266551	-466.043860	806.601584	315.703392	-474.608511	783.871174	303.395271	-460.099310	770.413160	353.174537	-470.613390	786.399841	334.905535	-473.190755	760.262489	321.724236	-456.722468	747.428477	393.655360	-445.315778	771.528602	383.062184	-441.594809	754.473269	370.492399	-429.110944	745.665431	376.129866	-459.130973	776.728034	355.965048	-459.718078	755.033016	340.973765	-443.013996	745.019197	359.821349	-419.942379	846.741259	330.325782	-421.729684	834.839284	309.358239	-432.828188	821.338773	176.325887	-431.117147	788.812339	196.093291	-449.521512	768.223882	216.119394	-442.469358	758.171141	165.215254	-427.319795	764.202237	184.953973	-438.355654	741.320431	206.579924	-430.141211	733.076036	147.371948	-384.298742	743.823469	162.143409	-385.108739	729.788363	180.599555	-379.855484	725.304961	153.481752	-405.373245	750.696898	174.490899	-415.304095	732.298493	197.231546	-407.222509	726.921737	170.664191	-379.378349	830.556452	199.270725	-393.152893	824.062943	217.017367	-411.478698	812.896192	288.047083	-263.846762	890.210271	317.592219	-48.787013	965.709776	297.213979	-174.654476	810.225129	302.819651	-156.316888	927.960023	415.733069	-413.102791	869.652957	119.658854	-345.300585	842.355996	352.627292	-80.301873	65.907069	161.585271	-179.352865	124.982219	397.079632	-239.578798	436.110467	88.893894	-339.771509	491.410986	542.269975	-270.508267	1048.368871	49.856701	-162.736319	1010.861516	161.585271	-739.163160	124.982219	352.627292	-739.163160	65.907069	126.247019	-739.163160	0.091232	396.079093	-739.163160	-9.042285	154.294521	-739.163160	4.122533	357.848078	-739.163160	1.690187	151.380852	-739.163160	36.350526	356.744319	-739.163160	21.406688	96.339695	-739.163160	6.022133	424.369723	-739.163160	3.035702	206.390083	-739.163160	85.729994	340.596467	-739.163160	-3.687344
